<svg width="18" height="18" viewBox="0 0 18 18" fill="none" xmlns="http://www.w3.org/2000/svg">
<path fill-rule="evenodd" clip-rule="evenodd" d="M9 1.5C4.86 1.5 1.5 4.86 1.5 9C1.5 13.14 4.86 16.5 9 16.5C13.14 16.5 16.5 13.14 16.5 9C16.5 4.86 13.14 1.5 9 1.5ZM12.9825 11.4825C12.765 11.6025 12.585 11.655 12.435 11.6925C12.3075 11.7225 12.2025 11.7525 12.1125 11.8125C12.015 11.8725 12.0075 11.97 11.9925 12.06C11.9775 12.1425 11.97 12.21 11.91 12.255C11.8425 12.3 11.715 12.3075 11.5425 12.315C11.3175 12.33 11.0325 12.3375 10.6875 12.4425C10.5225 12.5025 10.3725 12.5925 10.2225 12.6825C9.9225 12.87 9.585 13.0725 8.9925 13.0725C8.4075 13.0725 8.07 12.87 7.77 12.6825C7.62 12.585 7.47 12.495 7.2975 12.435C7.01986 12.3527 6.73206 12.3098 6.4425 12.3075C6.27 12.3 6.15 12.2925 6.075 12.2475C6.015 12.21 6.0075 12.135 5.9925 12.0525C5.9775 11.9625 5.97 11.865 5.8725 11.805C5.7825 11.745 5.67 11.715 5.55 11.6775C5.4 11.64 5.22 11.595 5.0025 11.475C4.7475 11.3325 4.8975 11.25 4.98 11.205C6.4275 10.5075 6.6525 9.4275 6.66 9.345V9.33C6.675 9.24 6.6825 9.165 6.5775 9.0675C6.51 9 6.2775 8.85 6.09 8.73C6.0075 8.67 5.9325 8.625 5.8875 8.6025C5.6775 8.4525 5.5875 8.31 5.655 8.1225C5.7 7.995 5.82 7.95 5.94 7.95C5.9775 7.95 6.0225 7.9575 6.0525 7.965C6.1875 7.995 6.3225 8.0475 6.4425 8.0925C6.525 8.13 6.5925 8.1525 6.645 8.1675C6.66 8.175 6.6825 8.175 6.69 8.175C6.765 8.175 6.7875 8.1375 6.78 8.0625C6.78 8.04 6.78 8.0175 6.7725 7.995C6.7575 7.7325 6.735 7.275 6.765 6.855C6.825 6.225 7.0275 5.9025 7.2675 5.6325C7.3875 5.4975 7.935 4.92 8.9775 4.92C10.0275 4.92 10.5675 5.4975 10.6875 5.625C10.9275 5.9025 11.13 6.2175 11.19 6.855C11.2275 7.2975 11.1975 7.77 11.175 8.0325V8.055C11.1675 8.1375 11.19 8.1675 11.265 8.1675C11.28 8.1675 11.295 8.1675 11.31 8.16C11.3625 8.145 11.43 8.1225 11.5125 8.0925C11.625 8.0475 11.76 7.995 11.9025 7.965C11.94 7.95 11.9775 7.95 12.015 7.95C12.1425 7.95 12.255 8.0025 12.3 8.13C12.3675 8.31 12.2775 8.4525 12.0675 8.6025C12.03 8.6325 11.955 8.685 11.865 8.73C11.685 8.85 11.445 9 11.3775 9.0675C11.2725 9.165 11.28 9.24 11.295 9.33V9.345C11.31 9.4275 11.535 10.5075 12.975 11.205C13.0875 11.25 13.2375 11.34 12.9825 11.4825Z" fill="#F5F5F5"/>
</svg>
